<svg width="1040" height="760" viewBox="0 0 1040 760" fill="none" xmlns="http://www.w3.org/2000/svg">
  <defs>
    <linearGradient id="overviewBg" x1="80" y1="44" x2="951" y2="719" gradientUnits="userSpaceOnUse">
      <stop stop-color="#FDFCF6"/>
      <stop offset="1" stop-color="#EEF7FF"/>
    </linearGradient>
    <linearGradient id="overviewCard" x1="738" y1="110" x2="930" y2="330" gradientUnits="userSpaceOnUse">
      <stop stop-color="#17304B"/>
      <stop offset="1" stop-color="#0B1627"/>
    </linearGradient>
    <filter id="shadow" x="0" y="0" width="1040" height="760" filterUnits="userSpaceOnUse" color-interpolation-filters="sRGB">
      <feFlood flood-opacity="0" result="BackgroundImageFix"/>
      <feColorMatrix in="SourceAlpha" type="matrix" values="0 0 0 0 0 0 0 0 0 0 0 0 0 0 0 0 0 0 127 0" result="hardAlpha"/>
      <feOffset dy="18"/>
      <feGaussianBlur stdDeviation="22"/>
      <feComposite in2="hardAlpha" operator="out"/>
      <feColorMatrix type="matrix" values="0 0 0 0 0.0352941 0 0 0 0 0.0862745 0 0 0 0 0.152941 0 0 0 0.16 0"/>
      <feBlend mode="normal" in2="BackgroundImageFix" result="effect1_dropShadow_1_1"/>
      <feBlend mode="normal" in="SourceGraphic" in2="effect1_dropShadow_1_1" result="shape"/>
    </filter>
  </defs>

  <g filter="url(#shadow)">
    <rect x="48" y="34" width="944" height="648" rx="40" fill="url(#overviewBg)"/>
    <rect x="88" y="78" width="864" height="42" rx="21" fill="#FFFFFF" fill-opacity="0.78"/>
    <circle cx="118" cy="99" r="6" fill="#FF7E6E"/>
    <circle cx="138" cy="99" r="6" fill="#FFC766"/>
    <circle cx="158" cy="99" r="6" fill="#36D39B"/>
    <rect x="706" y="87" width="208" height="24" rx="12" fill="#EAF3FB"/>

    <rect x="88" y="152" width="584" height="494" rx="30" fill="#F6F0E2"/>
    <rect x="710" y="152" width="242" height="222" rx="30" fill="url(#overviewCard)"/>
    <rect x="710" y="398" width="242" height="248" rx="30" fill="#FFFFFF"/>

    <rect x="120" y="188" width="164" height="426" rx="24" fill="#FFF5DE"/>
    <rect x="298" y="188" width="164" height="426" rx="24" fill="#EAF4FF"/>
    <rect x="476" y="188" width="164" height="426" rx="24" fill="#ECF7EE"/>

    <text x="140" y="219" fill="#617086" font-family="Arial, sans-serif" font-size="14" font-weight="700" letter-spacing="2.5">TODO</text>
    <text x="318" y="219" fill="#617086" font-family="Arial, sans-serif" font-size="14" font-weight="700" letter-spacing="2.5">IN PROGRESS</text>
    <text x="496" y="219" fill="#617086" font-family="Arial, sans-serif" font-size="14" font-weight="700" letter-spacing="2.5">DONE</text>

    <rect x="120" y="246" width="164" height="74" rx="18" fill="#FFFFFF"/>
    <rect x="120" y="336" width="164" height="82" rx="18" fill="#FFFFFF"/>
    <rect x="298" y="246" width="164" height="86" rx="18" fill="#FFFFFF"/>
    <rect x="298" y="348" width="164" height="104" rx="18" fill="#FFFFFF"/>
    <rect x="298" y="468" width="164" height="92" rx="18" fill="#FFFFFF"/>
    <rect x="476" y="246" width="164" height="74" rx="18" fill="#FFFFFF"/>
    <rect x="476" y="336" width="164" height="74" rx="18" fill="#FFFFFF"/>

    <rect x="140" y="266" width="95" height="10" rx="5" fill="#112032"/>
    <rect x="140" y="284" width="118" height="8" rx="4" fill="#D3DDE8"/>
    <rect x="140" y="356" width="110" height="10" rx="5" fill="#112032"/>
    <rect x="140" y="374" width="95" height="8" rx="4" fill="#D3DDE8"/>
    <rect x="140" y="389" width="78" height="8" rx="4" fill="#D3DDE8"/>

    <rect x="318" y="266" width="122" height="10" rx="5" fill="#112032"/>
    <rect x="318" y="284" width="102" height="8" rx="4" fill="#D3DDE8"/>
    <rect x="318" y="368" width="86" height="10" rx="5" fill="#112032"/>
    <rect x="318" y="386" width="118" height="8" rx="4" fill="#D3DDE8"/>
    <rect x="318" y="401" width="132" height="8" rx="4" fill="#D3DDE8"/>
    <rect x="318" y="488" width="92" height="10" rx="5" fill="#112032"/>
    <rect x="318" y="506" width="120" height="8" rx="4" fill="#D3DDE8"/>

    <rect x="496" y="266" width="98" height="10" rx="5" fill="#112032"/>
    <rect x="496" y="284" width="116" height="8" rx="4" fill="#D3DDE8"/>
    <rect x="496" y="356" width="84" height="10" rx="5" fill="#112032"/>
    <rect x="496" y="374" width="108" height="8" rx="4" fill="#D3DDE8"/>

    <text x="742" y="192" fill="#FFFFFF" font-family="Arial, sans-serif" font-size="14" font-weight="700" letter-spacing="2.5">THIS WEEK</text>
    <text x="742" y="250" fill="#FFFFFF" font-family="Arial, sans-serif" font-size="44" font-weight="700">18</text>
    <text x="742" y="282" fill="#B2C6D7" font-family="Arial, sans-serif" font-size="16">tasks completed</text>
    <rect x="742" y="316" width="178" height="12" rx="6" fill="#27486A"/>
    <rect x="742" y="316" width="138" height="12" rx="6" fill="#5EE4B2"/>

    <text x="742" y="442" fill="#677487" font-family="Arial, sans-serif" font-size="14" font-weight="700" letter-spacing="2.5">FOCUS FILTERS</text>
    <rect x="742" y="470" width="84" height="28" rx="14" fill="#EFF7FF"/>
    <rect x="836" y="470" width="86" height="28" rx="14" fill="#EFF7FF"/>
    <rect x="742" y="512" width="180" height="68" rx="18" fill="#F6F8FB"/>
    <rect x="762" y="532" width="102" height="10" rx="5" fill="#112032"/>
    <rect x="762" y="550" width="130" height="8" rx="4" fill="#CFD9E5"/>
    <rect x="762" y="590" width="160" height="16" rx="8" fill="#D8F2E1"/>
  </g>
</svg>
